<?xml version="1.0" encoding="UTF-8"?>
<!DOCTYPE svg PUBLIC "-//W3C//DTD SVG 1.1//EN" "http://www.w3.org/Graphics/SVG/1.1/DTD/svg11.dtd">
<!-- Creator: CorelDRAW 2021 (64-Bit) -->
<svg xmlns="http://www.w3.org/2000/svg" xml:space="preserve" width="0.281417in" height="0.45074in" version="1.1" style="shape-rendering:geometricPrecision; text-rendering:geometricPrecision; image-rendering:optimizeQuality; fill-rule:evenodd; clip-rule:evenodd"
viewBox="0 0 9.69 15.52"
 xmlns:xlink="http://www.w3.org/1999/xlink"
 xmlns:xodm="http://www.corel.com/coreldraw/odm/2003">
 <defs>
  <style type="text/css">
   <![CDATA[
    .fil0 {fill:black;fill-rule:nonzero}
   ]]>
  </style>
 </defs>
 <g id="Layer_x0020_1">
  <metadata id="CorelCorpID_0Corel-Layer"/>
  <path class="fil0" d="M6.57 11.08c0,-0.36 0,-0.68 -0,-1.01 -0,-0.14 -0.12,-0.26 -0.26,-0.26 -1.15,-0 -2.3,0 -3.44,-0 -0.63,-0 -1.04,-0.27 -1.24,-0.77 -0.35,-0.91 0.23,-1.74 1.22,-1.75 1.47,-0.01 2.95,-0.01 4.42,0 0.14,0 0.31,0.08 0.41,0.18 0.26,0.24 0.51,0.5 0.73,0.73 0.1,0.1 0.26,0.1 0.36,0.01l0.71 -0.64c0.11,-0.1 0.12,-0.27 0.01,-0.38l-5.88 -6.01 0 -0 -0.22 -0.22 -0.17 -0.17c-0.01,-0.01 -0.02,-0.02 -0.03,-0.03l-0.67 -0.67c-0.13,-0.13 -0.33,-0.13 -0.45,0l-0.64 0.64c-0.13,0.13 -0.13,0.35 0,0.48l0.64 0.64c0.01,0.02 0.02,0.04 0.04,0.05 0.59,0.59 1.19,1.19 1.8,1.79 0.67,0.67 1.34,1.34 2.08,2.08l-0.41 0c-0.95,0 -1.91,-0.01 -2.86,0 -1.08,0.02 -1.95,0.46 -2.42,1.45 -0.81,1.68 -0.03,4.13 2.55,4.12 0.43,-0 0.85,-0 1.27,-0l0 0.71 -1.4 0 -0.07 0 -0.6 0c-0.14,0 -0.26,0.12 -0.26,0.26l0 1.02c0,0.14 0.12,0.26 0.26,0.26l0.31 0 0.01 0 0.12 0c1.45,0 2.91,-0 4.36,0 0.73,0 1.21,0.44 1.28,1.16 0.02,0.19 -0,0.38 0.02,0.57 0.01,0.07 0.1,0.19 0.16,0.19 0.36,0.01 0.72,0.01 1.09,0.01 0.14,-0 0.25,-0.11 0.26,-0.24 0.03,-0.77 -0.05,-1.48 -0.51,-2.12 -0.59,-0.81 -1.43,-1.1 -2.38,-1.11 -0.4,-0 -0.8,-0.01 -1.19,-0.01l0 -0.71 0.6 0 0.11 0c0.14,0 0.26,-0.12 0.26,-0.26zm-6.57 1.59c0,-0.35 0.28,-0.62 0.63,-0.62l0.74 0c0.11,0 0.2,0.09 0.2,0.2l-0.01 1.14c-0,0.11 -0.09,0.2 -0.2,0.2l-0.71 -0c-0.36,-0 -0.66,-0.3 -0.65,-0.66l0 -0.25zm9.4 -1.33l-1.11 0 0 -1.53 1.13 0c0.15,0 0.27,0.12 0.27,0.27l0 0.97c0,0.16 -0.13,0.29 -0.29,0.29zm-1.2 0l-1.1 0c-0.17,0 -0.3,-0.13 -0.3,-0.3l0 -0.97c0,-0.14 0.11,-0.26 0.26,-0.26l1.15 0 0 1.53z"/>
 </g>
</svg>
