<?xml version="1.0" encoding="UTF-8"?>
<!DOCTYPE svg PUBLIC "-//W3C//DTD SVG 1.1//EN" "http://www.w3.org/Graphics/SVG/1.1/DTD/svg11.dtd">
<!-- Creator: CorelDRAW 2021 (64-Bit) -->
<svg xmlns="http://www.w3.org/2000/svg" xml:space="preserve" width="0.281598in" height="0.450953in" version="1.1" style="shape-rendering:geometricPrecision; text-rendering:geometricPrecision; image-rendering:optimizeQuality; fill-rule:evenodd; clip-rule:evenodd"
viewBox="0 0 5.71 9.14"
 xmlns:xlink="http://www.w3.org/1999/xlink"
 xmlns:xodm="http://www.corel.com/coreldraw/odm/2003">
 <defs>
  <style type="text/css">
   <![CDATA[
    .fil0 {fill:#FEFEFE;fill-rule:nonzero}
   ]]>
  </style>
 </defs>
 <g id="Layer_x0020_1">
  <metadata id="CorelCorpID_0Corel-Layer"/>
  <g id="_2343479852112">
   <path class="fil0" d="M3.87 6.52c0,-0.21 0,-0.4 0,-0.59 0,-0.08 -0.07,-0.15 -0.15,-0.15 -0.68,0 -1.35,0 -2.02,0 -0.37,0 -0.61,-0.16 -0.73,-0.45 -0.21,-0.54 0.14,-1.02 0.72,-1.03 0.86,-0.01 1.74,-0.01 2.6,0 0.08,0 0.18,0.05 0.24,0.11 0.15,0.14 0.3,0.29 0.43,0.43 0.06,0.06 0.15,0.06 0.21,0.01l0.42 -0.38c0.06,-0.06 0.07,-0.16 0.01,-0.22l-3.46 -3.54 0 0 -0.13 -0.13 -0.1 -0.1c-0.01,-0.01 -0.01,-0.01 -0.02,-0.02l-0.39 -0.39c-0.08,-0.08 -0.19,-0.08 -0.26,0l-0.38 0.38c-0.08,0.08 -0.08,0.21 0,0.28l0.38 0.38c0.01,0.01 0.01,0.02 0.02,0.03 0.35,0.35 0.7,0.7 1.06,1.05 0.39,0.39 0.79,0.79 1.22,1.22l-0.24 0c-0.56,0 -1.12,-0.01 -1.68,0 -0.64,0.01 -1.15,0.27 -1.42,0.85 -0.48,0.99 -0.02,2.43 1.5,2.42 0.25,0 0.5,0 0.75,0l0 0.42 -0.82 0 -0.04 0 -0.35 0c-0.08,0 -0.15,0.07 -0.15,0.15l0 0.6c0,0.08 0.07,0.15 0.15,0.15l0.18 0 0.01 0 0.07 0c0.85,0 1.71,0 2.57,0 0.43,0 0.71,0.26 0.75,0.68 0.01,0.11 0,0.22 0.01,0.34 0.01,0.04 0.06,0.11 0.09,0.11 0.21,0.01 0.42,0.01 0.64,0.01 0.08,0 0.15,-0.06 0.15,-0.14 0.02,-0.45 -0.03,-0.87 -0.3,-1.25 -0.35,-0.48 -0.84,-0.65 -1.4,-0.65 -0.24,0 -0.47,-0.01 -0.7,-0.01l0 -0.42 0.35 0 0.06 0c0.08,0 0.15,-0.07 0.15,-0.15l0.01 0.01zm-3.87 0.94c0,-0.21 0.16,-0.36 0.37,-0.36l0.44 0c0.06,0 0.12,0.05 0.12,0.12l-0.01 0.67c0,0.06 -0.05,0.12 -0.12,0.12l-0.42 0c-0.21,0 -0.39,-0.18 -0.38,-0.39l0 -0.15 0 -0.01zm5.53 -0.78l-0.65 0 0 -0.9 0.66 0c0.09,0 0.16,0.07 0.16,0.16l0 0.57c0,0.09 -0.08,0.17 -0.17,0.17l-0 0zm-0.71 0l-0.65 0c-0.1,0 -0.18,-0.08 -0.18,-0.18l0 -0.57c0,-0.08 0.06,-0.15 0.15,-0.15l0.68 0 0 0.9 -0.01 0z"/>
  </g>
 </g>
</svg>
