<?xml version="1.0" encoding="UTF-8"?>
<!DOCTYPE svg PUBLIC "-//W3C//DTD SVG 1.1//EN" "http://www.w3.org/Graphics/SVG/1.1/DTD/svg11.dtd">
<!-- Creator: CorelDRAW 2021 (64-Bit) -->
<svg xmlns="http://www.w3.org/2000/svg" xml:space="preserve" width="0.279217in" height="0.446197in" version="1.1" style="shape-rendering:geometricPrecision; text-rendering:geometricPrecision; image-rendering:optimizeQuality; fill-rule:evenodd; clip-rule:evenodd"
viewBox="0 0 4.65 7.43"
 xmlns:xlink="http://www.w3.org/1999/xlink"
 xmlns:xodm="http://www.corel.com/coreldraw/odm/2003">
 <defs>
  <style type="text/css">
   <![CDATA[
    .fil0 {fill:#856751}
   ]]>
  </style>
 </defs>
 <g id="Layer_x0020_1">
  <metadata id="CorelCorpID_0Corel-Layer"/>
  <g id="_1154388037680">
   <path class="fil0" d="M2 5.79l0 -0.38 -0.02 0c-0.2,0 -0.41,0 -0.62,0 -0.52,0 -0.97,-0.2 -1.21,-0.67 -0.2,-0.39 -0.2,-0.89 0,-1.28 0.22,-0.47 0.64,-0.68 1.15,-0.69 0.46,-0.01 0.92,0 1.38,0l0.25 0 -0.04 -0.04c-0.33,-0.33 -0.67,-0.67 -1.01,-1.01 -0.29,-0.28 -0.57,-0.57 -0.86,-0.86l-0.02 -0.02 0 -0.01c-0.08,-0.08 -0.16,-0.16 -0.25,-0.24 -0.04,-0.04 -0.07,-0.1 -0.07,-0.17 0,-0.07 0.02,-0.12 0.07,-0.17 0.06,-0.06 0.12,-0.12 0.17,-0.17 0.09,-0.09 0.24,-0.09 0.33,0 0.09,0.09 0.17,0.17 0.25,0.25 0.01,0.01 0.01,0.01 0.01,0.01 0.07,0.07 0.12,0.12 0.19,0.19l2.75 2.81c0.04,0.04 0.07,0.11 0.07,0.17 0,0.07 -0.03,0.12 -0.08,0.17l-0.15 0.14c-0.09,0.09 -0.24,0.08 -0.33,-0.01 -0.09,-0.09 -0.17,-0.17 -0.27,-0.26 -0.05,-0.05 -0.14,-0.09 -0.21,-0.09 -0.71,-0.01 -1.42,-0.01 -2.13,0 -0.49,0.01 -0.79,0.41 -0.61,0.88 0.11,0.28 0.33,0.38 0.62,0.38 0.51,0 1.02,0 1.52,0 0.13,0 0.23,0.1 0.23,0.23 0,0.07 0,0.15 0,0.22 0,0.07 -0.02,0.12 -0.07,0.17 -0.04,0.04 -0.1,0.07 -0.17,0.07l-0.23 0 0 0.38 0.02 0c0.19,0 0.38,0 0.57,0.01 0.46,0 0.86,0.15 1.13,0.53 0.19,0.26 0.25,0.55 0.25,0.87 0,0.07 -0.02,0.12 -0.07,0.17 -0.04,0.04 -0.1,0.07 -0.17,0.07 -0.08,0 -0.15,0 -0.23,0 -0.13,0 -0.23,-0.11 -0.23,-0.23 0,-0.04 0,-0.08 -0.01,-0.12 -0.04,-0.36 -0.28,-0.58 -0.64,-0.58 -0.7,0 -1.41,0 -2.1,0l-0.32 0 0 -0.7 1.12 0 0.01 0.01zm-1.28 0.7l-0.42 0c-0.16,0 -0.3,-0.14 -0.29,-0.3l0 -0.12c0,-0.16 0.12,-0.28 0.28,-0.28l0.44 0 -0.01 0.7 0 -0.01zm3.7 -1.09l-0.4 0 0 -0.7 0.4 0c0.13,0 0.23,0.1 0.23,0.23l0 0.23c0,0.13 -0.1,0.23 -0.23,0.23l0 -0zm-0.48 0l-0.41 0c-0.13,0 -0.23,-0.1 -0.23,-0.23l0 -0.23c0,-0.13 0.1,-0.23 0.23,-0.23l0.41 0 0 0.7 0 0z"/>
   <path class="fil0" d="M0.37 7.22l-0.02 0 0 0c0,0.01 -0.01,0.03 -0.01,0.04 -0.01,0.01 -0.02,0.02 -0.03,0.03 -0.01,0.01 -0.03,0.01 -0.04,0.02 -0.01,0.01 -0.03,0.01 -0.04,0.01 -0.01,0 -0.04,0 -0.05,-0.01 -0.01,-0.01 -0.03,-0.01 -0.04,-0.02 -0.01,-0.01 -0.02,-0.02 -0.03,-0.04 -0.01,-0.01 -0.01,-0.03 -0.01,-0.05l0 -0.2 0.05 0 0 0.2c0,0.01 0,0.02 0.01,0.03 0.01,0.01 0.01,0.01 0.02,0.02 0.01,0.01 0.01,0.01 0.03,0.01 0.01,0 0.02,0.01 0.03,0.01 0.01,0 0.01,0 0.03,0 0.01,0 0.01,-0.01 0.02,-0.01 0.01,-0.01 0.01,-0.01 0.02,-0.01 0.01,-0.01 0.01,-0.01 0.01,-0.02l-0.09 0 0 -0.05 0.15 0 0.02 0 0.03 0 0 -0.31 0.05 0 0 0.31 0.03 0 0.02 0 0.17 0c0.01,0 0.01,0 0.01,0 0.01,0 0.01,-0.01 0.01,-0.01 0,0 0.01,-0.01 0.01,-0.01 0,-0.01 0,-0.01 0,-0.01l0 -0.06c0,-0.01 0,-0.03 -0.01,-0.04 -0.01,-0.01 -0.01,-0.01 -0.01,-0.02 -0.01,-0.01 -0.01,-0.01 -0.02,-0.01 -0.01,0 -0.01,0 -0.02,0 -0.01,0 -0.01,0 -0.02,0 -0.01,0 -0.01,0 -0.02,0.01 -0.01,0 -0.01,0.01 -0.02,0.01 -0.01,0 -0.01,0.01 -0.01,0.01l-0.02 -0.04c0.01,0 0.01,-0.01 0.02,-0.01 0.01,0 0.01,-0.01 0.03,-0.01 0.01,0 0.02,-0.01 0.03,-0.01 0.01,0 0.02,0 0.03,0 0.01,0 0.03,0 0.04,0.01 0.01,0 0.03,0.01 0.04,0.02 0.01,0.01 0.02,0.02 0.03,0.04 0.01,0.01 0.01,0.04 0.01,0.06l0 0.06c0,0.01 0,0.02 -0.01,0.03 -0.01,0.01 -0.01,0.02 -0.01,0.03 -0.01,0.01 -0.01,0.01 -0.03,0.01 -0.01,0.01 -0.02,0.01 -0.03,0.01l-0.17 0 -0.02 0 -0.11 0 -0.02 -0.02zm3.2 -0.23c0.01,0 0.01,-0.01 0.02,-0.01 0.01,0 0.01,-0.01 0.03,-0.01 0.01,0 0.02,-0.01 0.03,-0.01 0.01,0 0.02,0 0.03,0 0.01,0 0.03,0 0.04,0.01 0.01,0 0.03,0.01 0.04,0.02 0.01,0.01 0.02,0.02 0.03,0.04 0.01,0.01 0.01,0.04 0.01,0.06l0 0.06c0,0.01 0,0.02 -0.01,0.03 -0.01,0.01 -0.01,0.02 -0.01,0.03 -0.01,0.01 -0.01,0.01 -0.03,0.01 -0.01,0.01 -0.02,0.01 -0.03,0.01l-0.17 0 -0.02 0 -0.15 0 -0.02 0 -0.03 0c0,0.01 -0.01,0.01 -0.01,0.02 -0.01,0.01 -0.01,0.01 -0.01,0.03 -0.01,0.01 -0.01,0.02 -0.03,0.03 -0.01,0.01 -0.03,0.01 -0.04,0.02l-0.02 -0.04c0.01,-0.01 0.01,-0.01 0.02,-0.01 0.01,-0.01 0.01,-0.01 0.01,-0.01 0.01,-0.01 0.01,-0.01 0.01,-0.01 0,-0.01 0.01,-0.01 0.01,-0.01 0.01,-0.01 0.01,-0.02 0.01,-0.03l0 -0.23 0.05 0 0 0.21 0.03 0 0.02 0 0.07 0 0 -0.21 0.05 0 0 0.21 0.03 0 0.02 0 0.17 0c0.01,0 0.01,0 0.01,0 0.01,0 0.01,-0.01 0.01,-0.01 0,0 0.01,-0.01 0.01,-0.01 0,-0.01 0,-0.01 0,-0.01l0 -0.06c0,-0.01 0,-0.03 -0.01,-0.04 -0.01,-0.01 -0.01,-0.01 -0.01,-0.02 -0.01,-0.01 -0.01,-0.01 -0.02,-0.01 -0.01,0 -0.01,0 -0.02,0 -0.01,0 -0.01,0 -0.02,0 -0.01,0 -0.01,0 -0.02,0.01 -0.01,0 -0.01,0.01 -0.02,0.01 -0.01,0 -0.01,0.01 -0.01,0.01l-0.02 -0.04 -0.01 -0.01zm-0.13 0.31c0,-0.01 0,-0.01 0,-0.01 0,0 0,-0.01 0.01,-0.01 0,0 0.01,-0.01 0.01,-0.01 0,0 0.01,0 0.01,0 0,0 0.01,0 0.01,0 0,0 0.01,0 0.01,0.01 0,0 0.01,0.01 0.01,0.01 0,0 0,0.01 0,0.01 0,0.01 0,0.01 -0.01,0.01 -0.01,0.01 -0.01,0.01 -0.02,0.01 -0.01,0 -0.01,0 -0.01,0 0,0 -0.01,0 -0.01,-0.01 0,0 -0.01,-0.01 -0.01,-0.01 0,0 0,-0.01 0,-0.01l0.01 0zm-0.07 0c0,-0.01 0,-0.01 0,-0.01 0,0 0,-0.01 0.01,-0.01 0,0 0.01,-0.01 0.01,-0.01 0,0 0.01,0 0.01,0 0,0 0.01,0 0.01,0 0,0 0.01,0 0.01,0.01 0,0 0.01,0.01 0.01,0.01 0,0 0,0.01 0,0.01 0,0 0,0.01 0,0.01 0,0 0,0.01 -0.01,0.01 0,0 -0.01,0.01 -0.01,0.01 0,0 -0.01,0 -0.01,0 0,0 -0.01,0 -0.01,0 0,0 -0.01,0 -0.01,-0.01 0,0 -0.01,-0.01 -0.01,-0.01 0,0 0,-0.01 0,-0.01zm-0.09 -0.41c0,0 0,-0.01 0,-0.01 0,0 0,-0.01 0.01,-0.01 0,0 0.01,-0.01 0.01,-0.01 0,0 0.01,0 0.01,0 0,0 0.01,0 0.01,0 0,0 0.01,0 0.01,0.01 0,0 0.01,0.01 0.01,0.01 0,0 0,0.01 0,0.01 0,0 0,0.01 0,0.01 0,0 0,0.01 -0.01,0.01 0,0 -0.01,0.01 -0.01,0.01 0,0 -0.01,0 -0.01,0 -0.01,0 -0.01,0 -0.02,-0.01 -0.01,-0.01 -0.01,-0.01 -0.01,-0.02l0.01 0.01zm-0.19 -0.03l0 0.28c0,0.01 0,0.02 -0.01,0.03 -0.01,0.01 -0.01,0.02 -0.01,0.03 -0.01,0.01 -0.01,0.01 -0.03,0.01 -0.01,0.01 -0.02,0.01 -0.03,0.01l0 0 -0.02 0 -0.11 0 -0.02 0 -0.15 0 -0.02 0 -0.34 0 -0.02 0 -0.07 0c-0.01,0.01 -0.02,0.02 -0.04,0.03 -0.01,0.01 -0.03,0.01 -0.04,0.01 -0.01,0 -0.03,0 -0.04,-0.01 -0.01,-0.01 -0.03,-0.01 -0.04,-0.03l-0.07 0 -0.02 0 -0.15 0 -0.02 0 -0.07 0c-0.01,0.01 -0.02,0.02 -0.04,0.03 -0.01,0.01 -0.03,0.01 -0.04,0.01 -0.01,0 -0.03,0 -0.04,-0.01 -0.01,-0.01 -0.03,-0.01 -0.04,-0.03 -0.01,-0.01 -0.02,-0.02 -0.02,-0.04 -0.01,-0.01 -0.01,-0.03 -0.01,-0.04l0 -0.01c-0.01,0 -0.01,0 -0.02,0.01 -0.01,0 -0.01,0.01 -0.01,0.01 0,0.01 -0.01,0.01 -0.01,0.01 0,0.01 0,0.01 0,0.01l0 0.14 -0.05 0 0 -0.14c0,-0.01 0,-0.02 0.01,-0.04 0,-0.01 0.01,-0.02 0.01,-0.03 0.01,-0.01 0.01,-0.01 0.03,-0.02 0.01,-0.01 0.03,-0.01 0.04,-0.01l0 0c0,-0.01 0,-0.03 0.01,-0.04 0.01,-0.01 0.01,-0.03 0.02,-0.04 0.01,-0.01 0.02,-0.02 0.04,-0.03 0.01,-0.01 0.03,-0.01 0.04,-0.01 0.01,0 0.03,0 0.04,0.01 0.01,0.01 0.03,0.01 0.04,0.03 0.01,0.01 0.02,0.02 0.02,0.04 0.01,0.01 0.01,0.03 0.01,0.04l0 0.06c0,0.01 0,0.02 -0.01,0.04l0.04 0 0.02 0 0.07 0 0 -0.21 0.05 0 0 0.21 0.03 0 0.02 0 0.03 0c0,-0.01 0,-0.01 0,-0.01 0,-0.01 0,-0.01 0,-0.01l0 -0.06c0,-0.01 0,-0.03 0.01,-0.04 0.01,-0.01 0.01,-0.03 0.02,-0.04 0.01,-0.01 0.02,-0.02 0.04,-0.03 0.01,-0.01 0.03,-0.01 0.04,-0.01 0.01,0 0.03,0 0.04,0.01 0.01,0.01 0.03,0.01 0.04,0.03 0.01,0.01 0.02,0.02 0.02,0.04 0.01,0.01 0.01,0.03 0.01,0.04l0 0.06c0,0.01 0,0.01 0,0.01 0,0.01 0,0.01 0,0.01l0.04 0 0.02 0 0.03 0 0 -0.21 0.05 0 0 0.04c0.01,-0.01 0.01,-0.01 0.03,-0.02 0.01,-0.01 0.02,-0.01 0.03,-0.01 0.01,-0.01 0.02,-0.01 0.03,-0.01 0.01,0 0.02,0 0.03,0 0.01,0 0.03,0 0.04,0.01 0.01,0.01 0.02,0.01 0.04,0.02 0.01,0.01 0.01,0.02 0.02,0.04 0.01,0.01 0.01,0.04 0.01,0.06l0 0.09 0.03 0 0.02 0 0.07 0 0 -0.21 0.05 0 0 0.21 0.03 0 0.02 0 0.03 0 0 -0.31 0.05 0 0 0.31 0.03 0 0.02 0 0 0c0.01,0 0.01,0 0.01,0 0.01,0 0.01,-0.01 0.01,-0.01 0,0 0.01,-0.01 0.01,-0.01 0,-0.01 0,-0.01 0,-0.01l0 -0.28 0.05 0 0.02 -0.01zm-0.32 0.03c0,0 0,-0.01 0,-0.01 0,0 0,-0.01 0.01,-0.01 0,0 0.01,-0.01 0.01,-0.01 0,0 0.01,0 0.01,0 0,0 0.01,0 0.01,0 0,0 0.01,0 0.01,0.01 0,0 0.01,0.01 0.01,0.01 0,0 0,0.01 0,0.01 0,0.01 0,0.01 -0.01,0.02 -0.01,0.01 -0.01,0.01 -0.01,0.01 0,0 -0.01,0 -0.01,0 0,0 -0.01,0 -0.01,-0.01 0,0 -0.01,-0.01 -0.01,-0.01 0,0 0,-0.01 0,-0.01l-0 -0.01zm-0.07 0c0,0 0,-0.01 0,-0.01 0,0 0,-0.01 0.01,-0.01 0,0 0.01,-0.01 0.01,-0.01 0,0 0.01,0 0.01,0 0,0 0.01,0 0.01,0 0,0 0.01,0 0.01,0.01 0,0 0.01,0.01 0.01,0.01 0,0 0,0.01 0,0.01 0,0 0,0.01 0,0.01 0,0 0,0.01 -0.01,0.01 0,0 -0.01,0.01 -0.01,0.01 0,0 -0.01,0 -0.01,0 -0.01,0 -0.01,0 -0.02,-0.01 -0.01,-0.01 -0.01,-0.01 -0.01,-0.02l0.01 0.01zm-0.15 0.12c-0.01,0 -0.02,0 -0.03,0 -0.01,0 -0.02,0.01 -0.03,0.01 -0.01,0.01 -0.01,0.01 -0.03,0.01 -0.01,0.01 -0.01,0.01 -0.02,0.01 -0.01,0.01 -0.01,0.01 -0.01,0.02 0,0.01 -0.01,0.01 -0.01,0.02l0 0.08 0.18 0 0 -0.09c0,-0.01 0,-0.02 -0.01,-0.03 0,-0.01 -0.01,-0.01 -0.01,-0.02 -0.01,-0.01 -0.01,-0.01 -0.02,-0.01 -0.01,0 -0.01,-0.01 -0.02,-0.01l0.01 0zm-0.37 0c-0.01,0 -0.01,0 -0.02,0.01 -0.01,0 -0.01,0.01 -0.02,0.01 -0.01,0.01 -0.01,0.01 -0.01,0.02 0,0.01 -0.01,0.01 -0.01,0.03l0 0.06c0,0.01 0,0.02 0.01,0.03 0,0.01 0.01,0.01 0.01,0.02 0.01,0.01 0.01,0.01 0.02,0.01 0.01,0 0.01,0.01 0.02,0.01 0.01,0 0.01,0 0.02,-0.01 0.01,0 0.01,-0.01 0.02,-0.01 0.01,-0.01 0.01,-0.01 0.01,-0.02 0,-0.01 0.01,-0.01 0.01,-0.03l0 -0.06c0,-0.01 0,-0.01 -0.01,-0.03 0,-0.01 -0.01,-0.01 -0.01,-0.02 -0.01,-0.01 -0.01,-0.01 -0.02,-0.01 -0.01,-0.01 -0.01,-0.01 -0.02,-0.01zm-0.25 0.28c0,-0.01 0,-0.01 0,-0.01 0,0 0,-0.01 0.01,-0.01 0,0 0.01,-0.01 0.01,-0.01 0,0 0.01,0 0.01,0 0,0 0.01,0 0.01,0 0,0 0.01,0 0.01,0.01 0,0 0.01,0.01 0.01,0.01 0,0 0,0.01 0,0.01 0,0.01 0,0.01 -0.01,0.01 -0.01,0.01 -0.01,0.01 -0.02,0.01 -0.01,0 -0.01,0 -0.01,0 0,0 -0.01,0 -0.01,-0.01 0,0 -0.01,-0.01 -0.01,-0.01 0,0 0,-0.01 0,-0.01l0.01 0zm-0.07 0c0,-0.01 0,-0.01 0,-0.01 0,0 0,-0.01 0.01,-0.01 0,0 0.01,-0.01 0.01,-0.01 0,0 0.01,0 0.01,0 0,0 0.01,0 0.01,0 0,0 0.01,0 0.01,0.01 0,0 0.01,0.01 0.01,0.01 0,0 0,0.01 0,0.01 0,0 0,0.01 0,0.01 0,0 0,0.01 -0.01,0.01 0,0 -0.01,0.01 -0.01,0.01 0,0 -0.01,0 -0.01,0 0,0 -0.01,0 -0.01,0 0,0 -0.01,0 -0.01,-0.01 0,0 -0.01,-0.01 -0.01,-0.01 0,0 0,-0.01 0,-0.01zm-0.09 -0.22c0,-0.01 0,-0.01 -0.01,-0.03 0,-0.01 -0.01,-0.01 -0.01,-0.02 -0.01,-0.01 -0.01,-0.01 -0.02,-0.01 -0.01,0 -0.01,-0.01 -0.02,-0.01 -0.01,0 -0.01,0 -0.03,0.01 -0.01,0.01 -0.01,0.01 -0.02,0.01 -0.01,0.01 -0.01,0.01 -0.01,0.02 0,0.01 -0.01,0.01 -0.01,0.03l0 0.06c0,0.01 0,0.01 0.01,0.03 0,0.01 0.01,0.01 0.01,0.02 0.01,0.01 0.01,0.01 0.02,0.01 0.01,0 0.01,0.01 0.03,0.01 0.01,0 0.01,0 0.02,-0.01 0.01,0 0.01,-0.01 0.02,-0.01 0.01,-0.01 0.01,-0.01 0.01,-0.02 0,-0.01 0.01,-0.01 0.01,-0.03l0 -0.06zm-0.42 -0.22l0 0.36 -0.05 0 0 -0.36 0.05 0zm-0.11 0l0 0.28c0,0.01 0,0.02 -0.01,0.03 -0.01,0.01 -0.01,0.02 -0.01,0.03 -0.01,0.01 -0.01,0.01 -0.03,0.01 -0.01,0.01 -0.02,0.01 -0.03,0.01l0 0 -0.02 0 -0.22 0 0 -0.05 0.14 0 0 -0.09c0,-0.01 0,-0.02 -0.01,-0.03 -0.01,-0.01 -0.01,-0.01 -0.02,-0.02 -0.01,-0.01 -0.02,-0.01 -0.04,-0.01 -0.01,0 -0.04,-0.01 -0.06,-0.01l0 -0.05c0.03,0 0.06,0 0.08,0.01 0.02,0.01 0.04,0.01 0.05,0.02 0.01,0.01 0.02,0.02 0.03,0.04 0.01,0.01 0.01,0.03 0.01,0.05l0 0.09 0.03 0 0.02 0 0 0c0.01,0 0.01,0 0.01,0 0.01,0 0.01,-0.01 0.01,-0.01 0,0 0.01,-0.01 0.01,-0.01 0,-0.01 0,-0.01 0,-0.01l0 -0.28 0.05 0 0.01 0.01zm-0.38 0l0 0.36 -0.05 0 0 -0.36 0.05 0zm-0.25 0.03c0,0 0,-0.01 0,-0.01 0,0 0,-0.01 0.01,-0.01 0,0 0.01,-0.01 0.01,-0.01 0,0 0.01,0 0.01,0 0,0 0.01,0 0.01,0 0,0 0.01,0 0.01,0.01 0,0 0.01,0.01 0.01,0.01 0,0 0,0.01 0,0.01 0,0.01 0,0.01 -0.01,0.02 -0.01,0.01 -0.01,0.01 -0.01,0.01 0,0 -0.01,0 -0.01,0 0,0 -0.01,0 -0.01,-0.01 0,0 -0.01,-0.01 -0.01,-0.01 0,0 0,-0.01 0,-0.01l-0 -0.01zm-0.38 0.51c0,-0.01 0,-0.01 0,-0.01 0,0 0,-0.01 0.01,-0.01 0,0 0.01,-0.01 0.01,-0.01 0,0 0.01,0 0.01,0 0,0 0.01,0 0.01,0 0,0 0.01,0 0.01,0.01 0,0 0.01,0.01 0.01,0.01 0,0 0,0.01 0,0.01 0,0.01 0,0.01 -0.01,0.01 -0.01,0.01 -0.01,0.01 -0.01,0.01 0,0 -0.01,0 -0.01,0 0,0 -0.01,0 -0.01,-0.01 0,0 -0.01,-0.01 -0.01,-0.01 0,0 0,-0.01 0,-0.01l-0 0zm-0.08 0c0,-0.01 0,-0.01 0,-0.01 0,0 0,-0.01 0.01,-0.01 0,0 0.01,-0.01 0.01,-0.01 0,0 0.01,0 0.01,0 0,0 0.01,0 0.01,0 0,0 0.01,0 0.01,0.01 0,0 0.01,0.01 0.01,0.01 0,0 0,0.01 0,0.01 0,0 0,0.01 0,0.01 0,0 0,0.01 -0.01,0.01 0,0 -0.01,0.01 -0.01,0.01 0,0 -0.01,0 -0.01,0 0,0 -0.01,0 -0.01,0 0,0 -0.01,0 -0.01,-0.01 0,0 -0.01,-0.01 -0.01,-0.01 0,0 0,-0.01 0,-0.01z"/>
  </g>
 </g>
</svg>
