<?xml version="1.0" encoding="UTF-8"?>
<!DOCTYPE svg PUBLIC "-//W3C//DTD SVG 1.1//EN" "http://www.w3.org/Graphics/SVG/1.1/DTD/svg11.dtd">
<!-- Creator: CorelDRAW 2021 (64-Bit) -->
<svg xmlns="http://www.w3.org/2000/svg" xml:space="preserve" width="0.278941in" height="0.446043in" version="1.1" style="shape-rendering:geometricPrecision; text-rendering:geometricPrecision; image-rendering:optimizeQuality; fill-rule:evenodd; clip-rule:evenodd"
viewBox="0 0 6.4 10.23"
 xmlns:xlink="http://www.w3.org/1999/xlink"
 xmlns:xodm="http://www.corel.com/coreldraw/odm/2003">
 <defs>
  <style type="text/css">
   <![CDATA[
    .fil0 {fill:#5B5B5B}
   ]]>
  </style>
 </defs>
 <g id="Layer_x0020_1">
  <metadata id="CorelCorpID_0Corel-Layer"/>
  <path class="fil0" d="M2.75 7.97l0 -0.53 -0.03 0c-0.28,0 -0.56,-0 -0.85,0 -0.71,0 -1.34,-0.28 -1.67,-0.93 -0.28,-0.54 -0.27,-1.22 -0,-1.77 0.31,-0.65 0.88,-0.94 1.59,-0.95 0.63,-0.01 1.27,0 1.9,0l0.35 0 -0.05 -0.05c-0.46,-0.46 -0.92,-0.93 -1.39,-1.39 -0.4,-0.39 -0.79,-0.79 -1.19,-1.18l-0.03 -0.03 -0 -0.02c-0.11,-0.11 -0.22,-0.22 -0.34,-0.33 -0.06,-0.06 -0.09,-0.14 -0.1,-0.23 -0,-0.09 0.03,-0.17 0.09,-0.23 0.08,-0.08 0.16,-0.16 0.24,-0.24 0.13,-0.13 0.33,-0.13 0.45,0 0.12,0.12 0.23,0.23 0.35,0.35 0.01,0.01 0.01,0.01 0.02,0.02 0.09,0.09 0.17,0.17 0.26,0.26l3.79 3.87c0.06,0.06 0.09,0.15 0.09,0.23 -0,0.09 -0.04,0.17 -0.11,0.23l-0.21 0.19c-0.13,0.12 -0.33,0.11 -0.45,-0.02 -0.12,-0.12 -0.24,-0.24 -0.37,-0.36 -0.07,-0.07 -0.19,-0.13 -0.29,-0.13 -0.98,-0.01 -1.96,-0.01 -2.94,0 -0.67,0.01 -1.09,0.57 -0.84,1.21 0.15,0.38 0.46,0.53 0.85,0.53 0.7,0 1.4,0 2.1,0 0.18,0 0.32,0.14 0.32,0.32 0,0.1 0,0.21 0,0.31 0,0.09 -0.03,0.17 -0.09,0.23 -0.06,0.06 -0.14,0.09 -0.23,0.09l-0.32 0 0 0.53 0.03 0c0.26,0 0.53,0 0.79,0.01 0.63,0 1.18,0.2 1.56,0.73 0.26,0.36 0.34,0.76 0.34,1.2 0,0.09 -0.03,0.17 -0.09,0.23 -0.06,0.06 -0.14,0.09 -0.23,0.09 -0.11,-0 -0.21,-0 -0.32,-0 -0.18,-0 -0.32,-0.15 -0.32,-0.32 0,-0.05 -0,-0.11 -0.01,-0.16 -0.05,-0.5 -0.38,-0.8 -0.88,-0.8 -0.97,0 -1.94,0 -2.9,0l-0.44 0 0 -0.97 1.55 0zm-1.77 0.97l-0.58 0c-0.22,0 -0.41,-0.19 -0.4,-0.41l0 -0.17c0,-0.22 0.17,-0.38 0.39,-0.38l0.6 0 -0.01 0.97zm5.1 -1.5l-0.55 0 0 -0.96 0.55 0c0.18,0 0.32,0.14 0.32,0.32l0 0.32c0,0.18 -0.14,0.32 -0.32,0.32zm-0.66 0l-0.56 0c-0.18,0 -0.32,-0.14 -0.32,-0.32l0 -0.32c0,-0.18 0.14,-0.32 0.32,-0.32l0.56 0 0 0.96z"/>
  <path class="fil0" d="M0.5 9.95l-0.03 0 -0 0c-0,0.02 -0.01,0.04 -0.02,0.06 -0.01,0.02 -0.03,0.03 -0.04,0.04 -0.02,0.01 -0.04,0.02 -0.06,0.03 -0.02,0.01 -0.04,0.01 -0.06,0.01 -0.02,0 -0.05,-0 -0.07,-0.01 -0.02,-0.01 -0.04,-0.02 -0.06,-0.03 -0.02,-0.01 -0.03,-0.03 -0.04,-0.05 -0.01,-0.02 -0.02,-0.04 -0.02,-0.07l0 -0.27 0.07 0 0 0.27c0,0.02 0,0.03 0.01,0.04 0.01,0.01 0.02,0.02 0.03,0.03 0.01,0.01 0.02,0.01 0.04,0.02 0.01,0 0.03,0.01 0.04,0.01 0.01,0 0.02,-0 0.04,-0 0.01,-0 0.02,-0.01 0.03,-0.01 0.01,-0.01 0.02,-0.01 0.03,-0.02 0.01,-0.01 0.01,-0.02 0.02,-0.03l-0.12 0 0 -0.07 0.2 0 0.03 0 0.04 0 0 -0.43 0.07 0 0 0.43 0.04 0 0.03 0 0.23 0c0.01,0 0.01,-0 0.02,-0 0.01,-0 0.01,-0.01 0.01,-0.01 0,-0 0.01,-0.01 0.01,-0.01 0,-0.01 0,-0.01 0,-0.02l0 -0.08c0,-0.02 -0,-0.04 -0.01,-0.05 -0.01,-0.01 -0.01,-0.02 -0.02,-0.03 -0.01,-0.01 -0.02,-0.01 -0.03,-0.02 -0.01,-0 -0.02,-0 -0.03,-0 -0.01,0 -0.02,0 -0.03,0 -0.01,0 -0.02,0 -0.03,0.01 -0.01,0 -0.02,0.01 -0.03,0.01 -0.01,0 -0.02,0.01 -0.02,0.01l-0.03 -0.06c0.01,-0 0.02,-0.01 0.03,-0.01 0.01,-0 0.02,-0.01 0.04,-0.01 0.01,-0 0.03,-0.01 0.04,-0.01 0.01,-0 0.03,-0 0.04,-0 0.02,0 0.04,0 0.06,0.01 0.02,0 0.04,0.01 0.05,0.03 0.02,0.01 0.03,0.03 0.04,0.05 0.01,0.02 0.01,0.05 0.01,0.08l0 0.08c0,0.02 -0,0.03 -0.01,0.04 -0.01,0.01 -0.01,0.03 -0.02,0.04 -0.01,0.01 -0.02,0.02 -0.04,0.02 -0.01,0.01 -0.03,0.01 -0.04,0.01l-0.23 0 -0.03 0 -0.15 0zm4.41 -0.32c0.01,-0 0.02,-0.01 0.03,-0.01 0.01,-0 0.02,-0.01 0.04,-0.01 0.01,-0 0.03,-0.01 0.04,-0.01 0.01,-0 0.03,-0 0.04,-0 0.02,0 0.04,0 0.06,0.01 0.02,0 0.04,0.01 0.05,0.03 0.02,0.01 0.03,0.03 0.04,0.05 0.01,0.02 0.01,0.05 0.01,0.08l0 0.08c0,0.02 -0,0.03 -0.01,0.04 -0.01,0.01 -0.01,0.03 -0.02,0.04 -0.01,0.01 -0.02,0.02 -0.04,0.02 -0.01,0.01 -0.03,0.01 -0.04,0.01l-0.23 0 -0.03 0 -0.2 0 -0.03 0 -0.04 0c-0,0.01 -0.01,0.02 -0.01,0.03 -0.01,0.01 -0.01,0.02 -0.02,0.04 -0.01,0.01 -0.02,0.03 -0.04,0.04 -0.02,0.01 -0.04,0.02 -0.06,0.03l-0.03 -0.06c0.01,-0.01 0.02,-0.01 0.03,-0.02 0.01,-0.01 0.02,-0.01 0.02,-0.02 0.01,-0.01 0.01,-0.01 0.02,-0.02 0,-0.01 0.01,-0.01 0.01,-0.02 0.01,-0.01 0.01,-0.03 0.01,-0.04l0 -0.32 0.07 0 0 0.29 0.04 0 0.03 0 0.09 0 0 -0.29 0.07 0 0 0.29 0.04 0 0.03 0 0.23 0c0.01,0 0.01,-0 0.02,-0 0.01,-0 0.01,-0.01 0.01,-0.01 0,-0 0.01,-0.01 0.01,-0.01 0,-0.01 0,-0.01 0,-0.02l0 -0.08c0,-0.02 -0,-0.04 -0.01,-0.05 -0.01,-0.01 -0.01,-0.02 -0.02,-0.03 -0.01,-0.01 -0.02,-0.01 -0.03,-0.02 -0.01,-0 -0.02,-0 -0.03,-0 -0.01,0 -0.02,0 -0.03,0 -0.01,0 -0.02,0 -0.03,0.01 -0.01,0 -0.02,0.01 -0.03,0.01 -0.01,0 -0.02,0.01 -0.02,0.01l-0.03 -0.06zm-0.18 0.43c0,-0.01 0,-0.01 0,-0.01 0,-0 0,-0.01 0.01,-0.01 0,-0 0.01,-0.01 0.01,-0.01 0,-0 0.01,-0 0.01,-0 0,0 0.01,0 0.01,0 0,0 0.01,0 0.01,0.01 0,0 0.01,0.01 0.01,0.01 0,0 0,0.01 0,0.01 0,0.01 -0,0.02 -0.01,0.02 -0.01,0.01 -0.02,0.01 -0.03,0.01 -0.01,0 -0.01,-0 -0.01,-0 -0,-0 -0.01,-0 -0.01,-0.01 -0,-0 -0.01,-0.01 -0.01,-0.01 -0,-0 -0,-0.01 -0,-0.01zm-0.1 0c0,-0.01 0,-0.01 0,-0.01 0,-0 0,-0.01 0.01,-0.01 0,-0 0.01,-0.01 0.01,-0.01 0,-0 0.01,-0 0.01,-0 0,0 0.01,0 0.01,0 0,0 0.01,0 0.01,0.01 0,0 0.01,0.01 0.01,0.01 0,0 0,0.01 0,0.01 0,0 -0,0.01 -0,0.01 -0,0 -0,0.01 -0.01,0.01 -0,0 -0.01,0.01 -0.01,0.01 -0,0 -0.01,0 -0.01,0 -0,0 -0.01,-0 -0.01,-0 -0,-0 -0.01,-0 -0.01,-0.01 -0,-0 -0.01,-0.01 -0.01,-0.01 -0,-0 -0,-0.01 -0,-0.01zm-0.12 -0.56c0,-0 0,-0.01 0,-0.01 0,-0 0,-0.01 0.01,-0.01 0,-0 0.01,-0.01 0.01,-0.01 0,-0 0.01,-0 0.01,-0 0,0 0.01,0 0.01,0 0,0 0.01,0 0.01,0.01 0,0 0.01,0.01 0.01,0.01 0,0 0,0.01 0,0.01 0,0 -0,0.01 -0,0.01 -0,0 -0,0.01 -0.01,0.01 -0,0 -0.01,0.01 -0.01,0.01 -0,0 -0.01,0 -0.01,0 -0.01,0 -0.02,-0 -0.03,-0.01 -0.01,-0.01 -0.01,-0.02 -0.01,-0.03zm-0.26 -0.04l0 0.38c0,0.02 -0,0.03 -0.01,0.04 -0.01,0.01 -0.01,0.03 -0.02,0.04 -0.01,0.01 -0.02,0.02 -0.04,0.02 -0.01,0.01 -0.03,0.01 -0.04,0.01l-0 0 -0.03 0 -0.15 0 -0.03 0 -0.2 0 -0.03 0 -0.47 0 -0.03 0 -0.09 0c-0.01,0.01 -0.03,0.03 -0.05,0.04 -0.02,0.01 -0.04,0.01 -0.06,0.01 -0.02,0 -0.04,-0 -0.06,-0.01 -0.02,-0.01 -0.04,-0.02 -0.05,-0.04l-0.09 0 -0.03 0 -0.2 0 -0.03 0 -0.09 0c-0.01,0.02 -0.03,0.03 -0.05,0.04 -0.02,0.01 -0.04,0.01 -0.06,0.01 -0.02,0 -0.04,-0 -0.06,-0.01 -0.02,-0.01 -0.04,-0.02 -0.05,-0.04 -0.01,-0.01 -0.03,-0.03 -0.03,-0.05 -0.01,-0.02 -0.01,-0.04 -0.01,-0.06l0 -0.01c-0.01,0 -0.02,0 -0.03,0.01 -0.01,0 -0.01,0.01 -0.02,0.01 -0,0.01 -0.01,0.01 -0.01,0.02 -0,0.01 -0,0.01 -0,0.02l0 0.19 -0.07 0 0 -0.19c0,-0.02 0,-0.03 0.01,-0.05 0,-0.02 0.01,-0.03 0.02,-0.04 0.01,-0.01 0.02,-0.02 0.04,-0.03 0.02,-0.01 0.04,-0.01 0.06,-0.01l0 -0c0,-0.02 0,-0.04 0.01,-0.06 0.01,-0.02 0.02,-0.04 0.03,-0.05 0.01,-0.01 0.03,-0.03 0.05,-0.04 0.02,-0.01 0.04,-0.01 0.06,-0.01 0.02,0 0.04,0 0.06,0.01 0.02,0.01 0.04,0.02 0.05,0.04 0.01,0.01 0.03,0.03 0.03,0.05 0.01,0.02 0.01,0.04 0.01,0.06l0 0.08c0,0.02 -0,0.03 -0.01,0.05l0.05 0 0.03 0 0.09 0 0 -0.29 0.07 0 0 0.29 0.04 0 0.03 0 0.04 0c-0,-0.01 -0,-0.01 -0,-0.02 -0,-0.01 -0,-0.02 -0,-0.02l0 -0.08c0,-0.02 0,-0.04 0.01,-0.06 0.01,-0.02 0.02,-0.04 0.03,-0.05 0.01,-0.01 0.03,-0.03 0.05,-0.04 0.02,-0.01 0.04,-0.01 0.06,-0.01 0.02,0 0.04,0 0.06,0.01 0.02,0.01 0.04,0.02 0.05,0.04 0.01,0.01 0.03,0.03 0.03,0.05 0.01,0.02 0.01,0.04 0.01,0.06l0 0.08c0,0.01 -0,0.02 -0,0.02 -0,0.01 -0,0.01 -0,0.02l0.05 0 0.03 0 0.04 0 0 -0.29 0.07 0 0 0.06c0.01,-0.01 0.02,-0.02 0.04,-0.03 0.01,-0.01 0.03,-0.01 0.04,-0.02 0.01,-0.01 0.03,-0.01 0.04,-0.01 0.01,-0 0.03,-0 0.04,-0 0.02,0 0.04,0 0.06,0.01 0.02,0.01 0.03,0.02 0.05,0.03 0.01,0.01 0.02,0.03 0.03,0.05 0.01,0.02 0.01,0.05 0.01,0.08l0 0.12 0.04 0 0.03 0 0.09 0 0 -0.29 0.07 0 0 0.29 0.04 0 0.03 0 0.04 0 0 -0.43 0.07 0 0 0.43 0.04 0 0.03 0 0 0c0.01,0 0.01,-0 0.02,-0 0.01,-0 0.01,-0.01 0.01,-0.01 0,-0 0.01,-0.01 0.01,-0.01 0,-0.01 0,-0.01 0,-0.02l0 -0.38 0.07 0zm-0.44 0.04c0,-0 0,-0.01 0,-0.01 0,-0 0,-0.01 0.01,-0.01 0,-0 0.01,-0.01 0.01,-0.01 0,-0 0.01,-0 0.01,-0 0,0 0.01,0 0.01,0 0,0 0.01,0 0.01,0.01 0,0 0.01,0.01 0.01,0.01 0,0 0,0.01 0,0.01 0,0.01 -0,0.02 -0.01,0.03 -0.01,0.01 -0.02,0.01 -0.02,0.01 -0,0 -0.01,-0 -0.01,-0 -0,-0 -0.01,-0 -0.01,-0.01 -0,-0 -0.01,-0.01 -0.01,-0.01 -0,-0 -0,-0.01 -0,-0.01zm-0.1 0c0,-0 0,-0.01 0,-0.01 0,-0 0,-0.01 0.01,-0.01 0,-0 0.01,-0.01 0.01,-0.01 0,-0 0.01,-0 0.01,-0 0,0 0.01,0 0.01,0 0,0 0.01,0 0.01,0.01 0,0 0.01,0.01 0.01,0.01 0,0 0,0.01 0,0.01 0,0 -0,0.01 -0,0.01 -0,0 -0,0.01 -0.01,0.01 -0,0 -0.01,0.01 -0.01,0.01 -0,0 -0.01,0 -0.01,0 -0.01,0 -0.02,-0 -0.03,-0.01 -0.01,-0.01 -0.01,-0.02 -0.01,-0.03zm-0.21 0.17c-0.01,0 -0.03,0 -0.04,0 -0.01,0 -0.03,0.01 -0.04,0.01 -0.01,0.01 -0.02,0.01 -0.04,0.02 -0.01,0.01 -0.02,0.01 -0.03,0.02 -0.01,0.01 -0.01,0.02 -0.02,0.03 -0,0.01 -0.01,0.02 -0.01,0.03l0 0.11 0.25 0 0 -0.12c0,-0.02 -0,-0.03 -0.01,-0.04 -0,-0.01 -0.01,-0.02 -0.02,-0.03 -0.01,-0.01 -0.02,-0.01 -0.03,-0.02 -0.01,-0 -0.02,-0.01 -0.03,-0.01zm-0.51 0c-0.01,0 -0.02,0 -0.03,0.01 -0.01,0 -0.02,0.01 -0.03,0.02 -0.01,0.01 -0.01,0.02 -0.02,0.03 -0,0.01 -0.01,0.02 -0.01,0.04l0 0.08c0,0.01 0,0.03 0.01,0.04 0,0.01 0.01,0.02 0.02,0.03 0.01,0.01 0.02,0.02 0.03,0.02 0.01,0 0.02,0.01 0.03,0.01 0.01,0 0.02,-0 0.03,-0.01 0.01,-0 0.02,-0.01 0.03,-0.02 0.01,-0.01 0.01,-0.02 0.02,-0.03 0,-0.01 0.01,-0.02 0.01,-0.04l0 -0.08c0,-0.01 -0,-0.02 -0.01,-0.04 -0,-0.01 -0.01,-0.02 -0.02,-0.03 -0.01,-0.01 -0.02,-0.02 -0.03,-0.02 -0.01,-0.01 -0.02,-0.01 -0.03,-0.01zm-0.34 0.39c0,-0.01 0,-0.01 0,-0.01 0,-0 0,-0.01 0.01,-0.01 0,-0 0.01,-0.01 0.01,-0.01 0,-0 0.01,-0 0.01,-0 0,0 0.01,0 0.01,0 0,0 0.01,0 0.01,0.01 0,0 0.01,0.01 0.01,0.01 0,0 0,0.01 0,0.01 0,0.01 -0,0.02 -0.01,0.02 -0.01,0.01 -0.02,0.01 -0.03,0.01 -0.01,0 -0.01,-0 -0.01,-0 -0,-0 -0.01,-0 -0.01,-0.01 -0,-0 -0.01,-0.01 -0.01,-0.01 -0,-0 -0,-0.01 -0,-0.01zm-0.1 0c0,-0.01 0,-0.01 0,-0.01 0,-0 0,-0.01 0.01,-0.01 0,-0 0.01,-0.01 0.01,-0.01 0,-0 0.01,-0 0.01,-0 0,0 0.01,0 0.01,0 0,0 0.01,0 0.01,0.01 0,0 0.01,0.01 0.01,0.01 0,0 0,0.01 0,0.01 0,0 -0,0.01 -0,0.01 -0,0 -0,0.01 -0.01,0.01 -0,0 -0.01,0.01 -0.01,0.01 -0,0 -0.01,0 -0.01,0 -0,0 -0.01,-0 -0.01,-0 -0,-0 -0.01,-0 -0.01,-0.01 -0,-0 -0.01,-0.01 -0.01,-0.01 -0,-0 -0,-0.01 -0,-0.01zm-0.12 -0.3c0,-0.01 -0,-0.02 -0.01,-0.04 -0,-0.01 -0.01,-0.02 -0.02,-0.03 -0.01,-0.01 -0.02,-0.02 -0.03,-0.02 -0.01,-0 -0.02,-0.01 -0.03,-0.01 -0.01,0 -0.02,0 -0.04,0.01 -0.01,0.01 -0.02,0.01 -0.03,0.02 -0.01,0.01 -0.01,0.02 -0.02,0.03 -0,0.01 -0.01,0.02 -0.01,0.04l0 0.08c0,0.01 0,0.02 0.01,0.04 0,0.01 0.01,0.02 0.02,0.03 0.01,0.01 0.02,0.02 0.03,0.02 0.01,0 0.02,0.01 0.04,0.01 0.01,0 0.02,-0 0.03,-0.01 0.01,-0 0.02,-0.01 0.03,-0.02 0.01,-0.01 0.01,-0.02 0.02,-0.03 0,-0.01 0.01,-0.02 0.01,-0.04l0 -0.08zm-0.58 -0.3l0 0.5 -0.07 0 0 -0.5 0.07 0zm-0.15 0l0 0.38c0,0.02 -0,0.03 -0.01,0.04 -0.01,0.01 -0.01,0.03 -0.02,0.04 -0.01,0.01 -0.02,0.02 -0.04,0.02 -0.01,0.01 -0.03,0.01 -0.04,0.01l-0 0 -0.03 0 -0.3 0 0 -0.07 0.19 0 0 -0.12c0,-0.02 -0,-0.03 -0.01,-0.04 -0.01,-0.01 -0.02,-0.02 -0.03,-0.03 -0.01,-0.01 -0.03,-0.01 -0.05,-0.02 -0.02,-0 -0.05,-0.01 -0.08,-0.01l0 -0.07c0.04,0 0.08,0 0.11,0.01 0.03,0.01 0.05,0.02 0.07,0.03 0.02,0.01 0.03,0.03 0.04,0.05 0.01,0.02 0.01,0.04 0.01,0.07l0 0.12 0.04 0 0.03 0 0 0c0.01,0 0.01,-0 0.02,-0 0.01,-0 0.01,-0.01 0.01,-0.01 0,-0 0.01,-0.01 0.01,-0.01 0,-0.01 0,-0.01 0,-0.02l0 -0.38 0.07 0zm-0.52 0l0 0.5 -0.07 0 0 -0.5 0.07 0zm-0.34 0.04c0,-0 0,-0.01 0,-0.01 0,-0 0,-0.01 0.01,-0.01 0,-0 0.01,-0.01 0.01,-0.01 0,-0 0.01,-0 0.01,-0 0,0 0.01,0 0.01,0 0,0 0.01,0 0.01,0.01 0,0 0.01,0.01 0.01,0.01 0,0 0,0.01 0,0.01 0,0.01 -0,0.02 -0.01,0.03 -0.01,0.01 -0.02,0.01 -0.02,0.01 -0,0 -0.01,-0 -0.01,-0 -0,-0 -0.01,-0 -0.01,-0.01 -0,-0 -0.01,-0.01 -0.01,-0.01 -0,-0 -0,-0.01 -0,-0.01zm-0.53 0.7c0,-0.01 0,-0.01 0,-0.01 0,-0 0,-0.01 0.01,-0.01 0,-0 0.01,-0.01 0.01,-0.01 0,-0 0.01,-0 0.01,-0 0,0 0.01,0 0.01,0 0,0 0.01,0 0.01,0.01 0,0 0.01,0.01 0.01,0.01 0,0 0,0.01 0,0.01 0,0.01 -0,0.02 -0.01,0.02 -0.01,0.01 -0.02,0.01 -0.02,0.01 -0,0 -0.01,-0 -0.01,-0 -0,-0 -0.01,-0 -0.01,-0.01 -0,-0 -0.01,-0.01 -0.01,-0.01 -0,-0 -0,-0.01 -0,-0.01zm-0.11 0c0,-0.01 0,-0.01 0,-0.01 0,-0 0,-0.01 0.01,-0.01 0,-0 0.01,-0.01 0.01,-0.01 0,-0 0.01,-0 0.01,-0 0,0 0.01,0 0.01,0 0,0 0.01,0 0.01,0.01 0,0 0.01,0.01 0.01,0.01 0,0 0,0.01 0,0.01 0,0 -0,0.01 -0,0.01 -0,0 -0,0.01 -0.01,0.01 -0,0 -0.01,0.01 -0.01,0.01 -0,0 -0.01,0 -0.01,0 -0,0 -0.01,-0 -0.01,-0 -0,-0 -0.01,-0 -0.01,-0.01 -0,-0 -0.01,-0.01 -0.01,-0.01 -0,-0 -0,-0.01 -0,-0.01z"/>
 </g>
</svg>
